Patient4_TMGait_0pt2_03_right_15_EMG.mot
version=1
nRows=13
nColumns=33
inDegrees=no
endheader
time	1LAddLong	2LGlutMax	3LGlutMed	4LIliopsoas	5LSemiMemb	6LBicFemLong	7LRecFem	8LVastMed	9LVastLat	10LGasMed	11LTibAnt	12lTibPost	13LPeroneusLong	14LSol	15LExtDigLong	16LFlexDigLong	17RAddLong	18RGlutMax	19RGlutMed	20RIliopsoas	21RSemiMemb	22RBicFemLong	23RRecFem	24RVastMed	25RVastLat	26RGasMed	27RTibAnt	28RTibPost	29RPeroneusLong	30RSol	31RExtDigLong	32RFlexDigLong
33.74	0.006256	0.059357	-0.023499	0.012817	0.023041	0.014954	0.071716	0.008087	-0.007935	-0.00061	0.00885	0.007477	-0.041656	-0.035706	0.016479	-0.012665	0.010681	-0.003662	-0.019226	0.3775	0.11429	-0.008698	-0.10346	-0.14389	0.80933	0.074615	0.033569	-0.007629	-0.055695	0.26123	-0.00351	-0.02121
33.741	0.00412	0.071259	-0.001526	0.005493	-0.00824	0.012512	0.045166	-0.000153	0.003967	-0.02243	0.007477	0.010376	-0.026855	-0.027924	0.016174	-0.01297	-0.00061	-0.013275	0.019379	0.168	0.054474	-0.026245	0.016022	-0.13733	0.75394	0.039673	-0.006409	-0.011292	0.59265	0.12756	-0.002594	-0.018311
33.742	0.016479	0.094147	0.004425	0.005951	-0.03479	0.004883	0.003204	0.002289	0.016327	-0.030823	-0.008392	0.000763	-0.028076	-0.026093	0.000916	-0.002136	-0.005493	-0.020447	0.13565	-0.00473	0.008392	-0.029602	0.035095	-0.098724	0.54779	0.023956	0.030518	0.000916	0.52017	-0.10895	-0.001373	-0.01709
33.743	0.018616	0.096436	0.025635	-0.005798	0.022583	-0.013123	-0.000305	-0.002136	0.021362	-0.008545	0.000153	0.006256	-0.024872	0.006409	-0.012512	-0.005646	-0.00885	0.055389	-0.11871	0.007172	0.028381	-0.028992	-0.14267	0.006866	0.37277	0.014496	0.046539	0.00824	-0.39917	-0.11154	-0.00351	-0.024109
33.744	0.031891	0.07782	0.040131	0.004425	0.003204	0.033112	0.021515	0.008698	0.01236	-0.001831	0.009918	0.009918	0.013275	-0.006714	-0.011292	0.009613	-0.000305	0.018921	-0.45685	0.075378	0.036163	-0.016327	-0.1648	0.098114	0.20844	0.000153	0.034485	0.006256	-0.52506	-0.052338	-0.00061	-0.023651
33.745	0.025024	0.095367	0.000305	0.002136	-0.012817	0.051575	0.035248	0.002289	0.007935	0.013733	0.030518	0.01709	0.012512	-0.010376	0.006256	0.004425	0.011597	-0.000153	-0.33356	0.028687	0.024261	-0.042572	-0.16754	0.12207	-0.20996	-0.008545	0.001984	-0.005188	0.54901	-0.045013	-0.000153	-0.026703
33.746	0.017853	0.071716	0	0.005493	0.067902	0.035248	0.048676	0.009003	0.00473	0.016022	0.017548	0.019684	0.012817	-0.011292	-0.005646	-0.007629	0.007935	-0.0383	-0.098572	-0.009308	-0.003967	-0.050354	-0.10834	0.1355	-0.49332	0.001526	-0.018158	-0.000916	0.5101	-0.23804	-0.001068	-0.030365
33.747	0.016479	0.07019	0.003357	0.007172	0.034027	0.039215	0.059662	0.005493	-0.006104	0.005341	0.012817	0.001678	0.019989	-0.010376	-0.017853	-0.005035	0.006561	0.007477	0.40634	-0.085754	-0.026398	-0.078583	-0.13443	-0.037994	-0.55405	0.002747	0.021667	-0.009918	0.1918	-0.36545	-0.003967	-0.032501
33.748	-0.001984	0.065155	0.10086	0.002441	-0.019379	0.041656	0.061951	0.000305	-0.007172	0.00885	0.00946	0.012665	0.009766	-0.011139	-0.02121	-0.011597	0.014038	-0.045624	0.52933	-0.1648	-0.13153	-0.087433	-0.23666	-0.071564	-0.91888	0.028534	0.013428	-0.005341	0.14496	-0.40665	-0.001373	-0.021973
33.749	-0.00946	0.045929	0.041199	0.001678	-0.059509	0.018005	0.063324	0.006714	-0.011292	0.002899	0.011597	-0.003357	0.010071	-0.00061	-0.023956	-0.01297	0.033569	-0.05188	0.33478	-0.035553	-0.26016	0.019073	-0.21149	-0.044098	-0.90668	0.048065	0.023804	-0.001526	0.12619	-0.32532	-0.001221	-0.026855
33.75	0.00473	0.061493	0.016937	0.009003	-0.029144	-0.013123	0.046997	0.007324	-0.016174	-0.003052	0.011139	0.008698	0.008087	-0.022736	-0.018005	-0.008545	0.057678	-0.01297	-0.09903	0.043488	-0.060577	0.030823	-0.12512	-0.079498	-0.513	0.064545	0.072632	-0.027008	-0.28214	0.25314	-0.000305	-0.020599
33.751	-0.005188	0.041199	0.074005	0.017242	-0.010376	-0.009308	0.060883	0.011597	-0.016479	0.012207	0.013733	0.007629	0.013428	-0.010223	-0.019531	-0.000916	0.068207	0.014648	-0.1474	0.074768	0.11993	0.038452	-0.050812	-0.103	-0.35248	-0.040894	0.079041	-0.023041	-0.14557	0.336	0.00061	-0.032043
33.752	0.009003	0.024567	0.019073	0.003052	-0.01709	-0.006866	0.060883	0.012054	-0.016937	0.005798	0.010376	0.011597	0.004883	0.001984	-0.015717	0.002289	0.010681	-0.012207	0.090637	0.0737	-0.00061	0.079041	-0.034485	-0.070648	-0.22995	-0.082245	0.06546	0.050354	0.027161	0.14603	-0.001526	-0.022125
